<?xml version="1.0" encoding="UTF-8"?>
<svg width="482px" height="270px" viewBox="0 0 482 270" version="1.1" xmlns="http://www.w3.org/2000/svg" xmlns:xlink="http://www.w3.org/1999/xlink">
    <!-- Generator: Sketch 61.2 (89653) - https://sketch.com -->
    <title>mdpi/share customers</title>
    <desc>Created with Sketch.</desc>
    <g id="web2.0_shopcenter" stroke="none" stroke-width="1" fill="none" fill-rule="evenodd">
        <g id="Desktop-HD" transform="translate(-708.000000, -1623.000000)">
            <g id="share-customers" transform="translate(710.000000, 1625.000000)">
                <path d="M475.980072,125.02994 L432.283539,125.02994 L432.283539,130.382419 L475.980072,130.382419 L475.980072,125.02994 Z M478.60182,152.752938 L478.60182,147.12597 L475.882635,133.058637 L432.380653,133.058637 L429.661756,147.12597 L429.661756,152.752938 L432.380653,152.752938 L432.380653,169.633712 L430.011327,169.633712 C429.046023,169.633712 428.263473,170.426139 428.263473,171.403683 C428.263473,172.381226 429.046023,173.173653 430.011327,173.173653 L478.252168,173.173653 C479.217485,173.173653 480,172.381226 480,171.403683 C480,170.426139 479.217485,169.633712 478.252168,169.633712 L475.882635,169.633712 L475.882635,152.752938 L478.60182,152.752938 Z M470.44504,169.633712 L470.44504,152.752938 L459.569504,152.752938 L459.569504,169.633712 L470.44504,169.633712 Z M437.527114,164.281321 L454.131737,164.281321 L454.131737,152.684305 L437.527114,152.684305 L437.527114,164.281321 Z" id="Shape" fill="#FFAA00"></path>
                <path d="M84.3633054,17.245509 L40.6667727,17.245509 L40.6667727,22.5979878 L84.3633054,22.5979878 L84.3633054,17.245509 Z M86.9850539,44.9685072 L86.9850539,39.3415389 L84.2658683,25.2742054 L40.7638865,25.2742054 L38.0449897,39.3415389 L38.0449897,44.9685072 L40.7638865,44.9685072 L40.7638865,61.8492812 L38.3945605,61.8492812 C37.429256,61.8492812 36.6467066,62.6417074 36.6467066,63.6192514 C36.6467066,64.5967953 37.429256,65.3892216 38.3945605,65.3892216 L86.6354012,65.3892216 C87.6007186,65.3892216 88.3832335,64.5967953 88.3832335,63.6192514 C88.3832335,62.6417074 87.6007186,61.8492812 86.6354012,61.8492812 L84.2658683,61.8492812 L84.2658683,44.9685072 L86.9850539,44.9685072 Z M78.8282731,61.8492812 L78.8282731,44.9685072 L67.9527377,44.9685072 L67.9527377,61.8492812 L78.8282731,61.8492812 Z M45.9103473,56.4968897 L62.5149701,56.4968897 L62.5149701,44.899874 L45.9103473,44.899874 L45.9103473,56.4968897 Z" id="Shape" fill="#FFAA00"></path>
                <g id="team" transform="translate(30.898204, 185.389222)" fill="#FFAA00" fill-rule="nonzero">
                    <circle id="Oval" cx="20.1023036" cy="11.85764" r="11.5937161"></circle>
                    <path d="M24.5949278,26.2376471 C24.5401902,26.2361677 24.4854526,26.2346883 24.430715,26.2338006 L15.7741881,26.2338006 C6.89693554,26.4006763 -0.164212751,33.7325537 0.00295878831,42.6098063 C0.0038464248,42.6645439 0.00532581895,42.7192814 0.0068052131,42.774019 L0.0068052131,45.2472702 C0.0068052131,46.4840437 0.470447341,47.8752659 1.8616696,47.8752659 L38.3429377,47.8752659 C39.7341599,47.8752659 40.197802,46.4840437 40.197802,45.2472702 L40.197802,42.774019 C40.4558084,33.8988376 33.4701092,26.4953575 24.5949278,26.2376471 Z" id="Path"></path>
                </g>
                <g id="team" transform="translate(354.970060, 0.718563)" fill="#FFAA00" fill-rule="nonzero">
                    <circle id="Oval" cx="20.1023036" cy="11.85764" r="11.5937161"></circle>
                    <path d="M24.5949278,26.2376471 C24.5401902,26.2361677 24.4854526,26.2346883 24.430715,26.2338006 L15.7741881,26.2338006 C6.89693554,26.4006763 -0.164212751,33.7325537 0.00295878831,42.6098063 C0.0038464248,42.6645439 0.00532581895,42.7192814 0.0068052131,42.774019 L0.0068052131,45.2472702 C0.0068052131,46.4840437 0.470447341,47.8752659 1.8616696,47.8752659 L38.3429377,47.8752659 C39.7341599,47.8752659 40.197802,46.4840437 40.197802,45.2472702 L40.197802,42.774019 C40.4558084,33.8988376 33.4701092,26.4953575 24.5949278,26.2376471 Z" id="Path"></path>
                </g>
                <path d="M20.6185985,77.7958337 C7.37785517,94.5926806 0,113.264517 0,132.934132 C0,155.336911 9.5706668,176.445356 26.4736851,194.963416 M82.1933285,234.861099 C122.071875,254.215208 173.476117,265.868263 229.580838,265.868263 C318.907938,265.868263 396.319607,236.328468 434.269251,193.199174 M452.759569,101.629465 C444.438742,81.669455 428.339086,63.4662325 406.422498,48.1557953 M346.822417,18.6170141 C312.506134,6.79183206 272.413293,0 229.580838,0 C185.332305,0 144.007527,7.24834371 108.954731,19.8063084" id="Shape" stroke="#233E8C" stroke-width="2.8742515" stroke-dasharray="10.05987968444824"></path>
                <path d="M114.715157,9.03787456 L123.886845,27.3812499 C124.2418,28.0911591 123.954052,28.9544018 123.244143,29.3093564 C123.04459,29.4091328 122.824548,29.4610778 122.601441,29.4610778 L104.258065,29.4610778 C103.464363,29.4610778 102.82094,28.8176547 102.82094,28.0239521 C102.82094,27.8008454 102.872885,27.5808026 102.972661,27.3812499 L112.144349,9.03787456 C112.499303,8.32796534 113.362546,8.04021778 114.072455,8.39517239 C114.350579,8.53423399 114.576096,8.75975135 114.715157,9.03787456 Z" id="Triangle" fill="#233E8C" transform="translate(113.429753, 17.964072) rotate(-105.000000) translate(-113.429753, -17.964072) "></path>
                <path d="M18.5309133,72.2714075 L27.702601,90.6147829 C28.0575556,91.3246921 27.7698081,92.1879348 27.0598988,92.5428894 C26.8603461,92.6426657 26.6403034,92.6946108 26.4171967,92.6946108 L8.0738213,92.6946108 C7.28011867,92.6946108 6.63669555,92.0511877 6.63669555,91.257485 C6.63669555,91.0343783 6.68864059,90.8143356 6.78841695,90.6147829 L15.9601046,72.2714075 C16.3150592,71.5614983 17.1783019,71.2737507 17.8882112,71.6287053 C18.1663344,71.7677669 18.3918517,71.9932843 18.5309133,72.2714075 Z" id="Triangle" fill="#233E8C" transform="translate(17.245509, 81.197605) rotate(35.000000) translate(-17.245509, -81.197605) "></path>
                <path d="M429.548877,190.115719 L438.720565,208.459094 C439.07552,209.169003 438.787772,210.032246 438.077863,210.387201 C437.87831,210.486977 437.658267,210.538922 437.435161,210.538922 L419.091785,210.538922 C418.298083,210.538922 417.65466,209.895499 417.65466,209.101796 C417.65466,208.87869 417.706605,208.658647 417.806381,208.459094 L426.978069,190.115719 C427.333023,189.40581 428.196266,189.118062 428.906175,189.473017 C429.184298,189.612078 429.409816,189.837596 429.548877,190.115719 Z" id="Triangle" fill="#233E8C" transform="translate(428.263473, 199.041916) rotate(45.000000) translate(-428.263473, -199.041916) "></path>
                <path d="M451.824327,88.0797907 L460.996014,106.423166 C461.350969,107.133075 461.063221,107.996318 460.353312,108.351273 C460.153759,108.451049 459.933717,108.502994 459.71061,108.502994 L441.367234,108.502994 C440.573532,108.502994 439.930109,107.859571 439.930109,107.065868 C439.930109,106.842762 439.982054,106.622719 440.08183,106.423166 L449.253518,88.0797907 C449.608472,87.3698815 450.471715,87.0821339 451.181624,87.4370886 C451.459748,87.5761502 451.685265,87.8016675 451.824327,88.0797907 Z" id="Triangle" fill="#233E8C" transform="translate(450.538922, 97.005988) rotate(150.000000) translate(-450.538922, -97.005988) "></path>
            </g>
        </g>
    </g>
</svg>